<?xml version="1.0" encoding="utf-8"?>
<!-- Generator: Adobe Illustrator 24.0.0, SVG Export Plug-In . SVG Version: 6.00 Build 0)  -->
<svg version="1.1" id="Livello_1" xmlns="http://www.w3.org/2000/svg" xmlns:xlink="http://www.w3.org/1999/xlink" x="0px" y="0px"
	 viewBox="0 0 610.1 381.3" style="enable-background:new 0 0 610.1 381.3;" xml:space="preserve">
<style type="text/css">
	svg {
    width: 100%;
    height: 100%;
    opacity: 1;
    transition: 1s;
  }

  .face-inner {
    stroke-dasharray: 1000;
    stroke-dashoffset: 5000;
    animation: dash 3s linear alternate infinite; 
    stroke: darkred;
  }
  
  .face-outer {
    stroke-dasharray: 2000;
    stroke-dashoffset: 5000;
    animation: dash 2s linear alternate infinite; 
  }
  
  @keyframes dash {
    to {
      stroke-dashoffset: 0;
    }
    0% { stroke: hsl(180, 100%, 90%); } 
    10% { stroke: hsl(198, 100%, 75%); }
    20% { stroke: hsl(216, 100%, 90%); }
    30% { stroke: hsl(234, 100%, 75%); }
    40% { stroke: hsl(252, 100%, 90%); }
    50% { stroke: hsl(270, 100%, 75%); }
    60% { stroke: hsl(288, 100%, 90%); }
    70% { stroke: hsl(306, 100%, 75%); }
    80% { stroke: hsl(324, 100%, 90%); }
    90% { stroke: hsl(342, 100%, 75%); }
    100% { stroke: hsl(360, 100%, 90%); }
  }
  
  @keyframes background {
    0% { background-color: #101}
    33% { background-color: #110 }
    67% { background-color: #011 }
    100% { background-color: #101 }
  }
</style>
<g>
	<path class="st0 face-inner" d="M269.4,59.2C269.3,59.3,269.2,59.3,269.4,59.2L269.4,59.2z"/>
	<path class="st0 face-outer" d="M227.7,181.6C227.7,181.6,227.7,181.6,227.7,181.6C227.7,181.6,227.7,181.6,227.7,181.6L227.7,181.6z"/>
	<path class="st0 face-inner" d="M264.8,216.2C264.8,216.2,264.8,216.2,264.8,216.2c0.9-0.3,1.9-0.3,2.7-0.8c0.8-0.5,2-2.1,2.1-2   c1.8,1.5,1.9-0.6,2.7-1.2c0.3-0.2,0.6-0.4,0.9-0.5c0,0.1,0,0.3,0.1,0.4c0.2,0.2,0.5,0.5,0.7,0.4c2.1-0.5,3-2.3,4.1-4   c1.8-2.6,4-4.8,5.8-7.4c2.2-3.1,4.3-6.3,6.1-9.6c1.1-2,2.1-4.5,1.9-6.7c-0.4-5-1.5-10-2.2-15.1c-0.2-1.3,0.2-2.7,0.7-3.9   c0.6-1.4,1.7-2.7,2.4-4.1c0.4-0.8,0.4-1.7,0.7-2.5c0.7-2.5,1.5-4.9,2.1-7.4c0.2-0.7-0.4-1.5-0.3-2.2c0.3-1.8,1-3.6,1-5.5   c0-1.2-1.2-2.4-1.4-3.6c-0.4-3-0.3-6-0.7-9c-0.3-2.8-1.3-5.4-1.5-8.2c-0.4-7.7-0.6-15.4-0.8-23.2c0-0.2-0.1-0.5-0.3-0.9   c-0.3,0.4-0.4,0.6-0.5,0.8c-3.1,6.8-6.2,13.6-9.4,20.3c-1.7,3.6-3.8,7.1-5.5,10.7c-1.4,3-2.1,6.2-4,9c-1.6,2.2-2.5,4.9-3.7,7.4   c0.5,0,0.9,0,1.4,0c-0.5,0.2-0.9,0.5-1.4,0.7c-0.2,0.3-0.3,0.7-0.5,1c-1.1-0.6-2.3-1.2-3.4-1.7c-0.2,0.3-0.3,0.6-0.5,0.9   c-0.2-0.4-0.4-0.8-0.6-1.2c0.4,0.1,0.7,0.2,1.1,0.3c0.1-0.5,0.5-1.1,0.4-1.4c-0.9-1.7-0.9-3.2,0.1-4.8c0.1-0.1-0.6-0.8-1-1.1   c-0.5-0.3-1.3-0.4-1.8-0.8c-0.3-0.2-0.4-0.8-0.6-1.2c0,0,0,0,0,0c0.1-0.6,0.2-1.2,0.4-1.8c0.4,0,1.2,0.2,1.3,0.1   c0.2-0.6,0.3-1.2,0.2-1.8c-0.1-0.5-0.6-0.9-0.7-1.3c-0.2-0.6-0.2-1.2-0.3-1.7c-0.4,0.4-0.8,0.9-1.7,1.8c0.3-1.3,0.5-2,0.7-2.8   c-0.6,0.3-1.3,0.5-2.4,1c3.8-9.8,1.6-20.4,3.7-30.7c-2.8,2.5-3.7,8-5.7,11c-2,3-5,5.3-7.1,8.2c-1.6,2.4-2.4,5.3-3.7,8   c-0.6,1.2-1.6,2.1-2.3,3.2c-0.6,0.9-1.3,1.7-1.8,2.6c-0.1,0.3,0.6,0.9,0.8,1.3c-0.7,0.5-1.8,1-2,1.7c-0.9,3.2-2.1,6.5-2.3,9.8   c-0.3,4.2,0,8.4,0.5,12.6c0.5,4,1.8,7.9,2.8,11.8c0.2,0.6,0.6,1.2,1.1,1.6c1.3,1,2.8,1.9,4.1,2.9c0.5,0.3,1.1,0.7,1.2,1.2   c0.3,1.1,0.2,1.2,1.5,1.8c1.1,0.5,2.3,0.9,3.4,1.4c-0.3,0.2-0.6,0.4-0.9,0.7c0.5,0.3,1,0.7,1.5,0.8c2.4,0.3,4.8,0.5,7.2,0.8   c2,0.2,4,1.1,5.9,0.8c2.1-0.4,4.4-1.1,6.2-2c3.6-1.9,6.8-4.7,10.2-7.1c0.3-0.2,0.8-0.4,1.1-0.2c0.5,0.2,0.9,0.6,1.7,1.1   c-0.3,5-4.4,10-9.5,11.9c-3.6,1.4-6.8,3.6-10.2,5.4c-0.4,0.2-1.3,0.4-1.5,0.1c-2-2.1-3.7-2.3-5.2,0.6c-0.3,0-0.6,0-1,0   c-1.1-0.4-2.2-0.9-3.3-1.3c-1.1-0.4-2.3-1.1-3.4-1c-1.3,0.1-2.4,1-3.9,1.6c0.3-0.6,0.8-1.2,0.7-1.3c-0.6-0.9-3.4-0.7-4.2,0.3   c-0.1,0.3-0.3,0.5-0.4,0.8c0,0-0.1-0.1-0.1-0.1c0.2-0.2,0.4-0.5,0.5-0.7c0.1-0.4,0.1-0.8,0.3-1.1c0.3-0.5,0.7-0.9,1-1.4   c-0.6-0.1-1.1-0.1-1.7-0.2c-0.6-0.1-1.1-0.2-1.7-0.4c0.5-0.4,0.9-0.8,1.6-1.4c-1.2-0.3-2.3-0.6-3.5-1c-2.2-0.6-5.1-0.2-5.4-3.7   c-0.1-0.6-0.9-1.7-1.7-0.1c-0.6,1.2-1.6,2.6-2.7,3.1c-0.9,0.4-2.4-0.4-3.6-0.7c0.3-0.2,0.6-0.4,0.9-0.5c-0.2-0.6-0.4-1.3-0.7-1.9   c-0.1-0.1-0.2-0.2-0.3-0.2c-0.7-0.6-1.4-1.3-2.1-1.9c1-0.4,2-0.7,3-1.1c0,0,0.1-0.1,0.1-0.1c-0.2-0.3-0.5-0.6-0.7-1   c-1.8,1.5-2.6-0.8-3.9-1.1c-0.3-0.1-0.6-0.2-1.3-0.3c0.5,0.7,0.9,1.1,1,1.5c0.2,0.5,0.2,1.1,0.3,1.6c-0.4-0.3-0.8-0.6-1.2-0.9   c-0.6-0.4-1.3-0.7-2-1.1c-0.1,0.1-0.2,0.1-0.3,0.2c0.4,0.7,0.9,1.4,1.3,2.1c0.2,0.4,0.2,0.9,0.3,1.3c-0.4-0.2-0.8-0.6-1.3-0.7   c-1.1-0.2-1.1-3.5-3.2-1.3c0,0-0.4-0.3-0.6-0.5c-0.3-0.2-0.6-0.5-1-0.7c-1.5-0.3-1.7-1.1-0.8-2.5c0.3,0.2,0.7,0.4,1,0.6   c0.2,0.1,0.5,0.2,0.7,0.3c0-0.3,0-0.6-0.1-0.8c-0.4-0.4-1-0.7-1.3-1.2c-0.4-0.5-0.8-1.2-0.9-1.8c-0.2-1.3,0.4-2.7-1.9-2.6   c-0.9,0-2.1-0.6-2.7-1.2c-2.3-2.4-2.3-0.9-4.3-2.4c0,0-0.1-0.1-0.1-0.1c-1.5-1.2-3-2.3-4.6-3.5c0.2-0.2,0.5-0.5,0.7-0.7l0.1-0.1   c0.2-0.4,0.3-0.9,0.5-1.3c0.1-0.3,0.4-0.7,0.6-0.7c0.3,0.1,0.7,0.4,1,0.6c0.7,0.6,1.5,1.1,2.2,1.7c-0.6-3-1.7-3.3-4.6-2.8   c-1.2,0.2-2.3-0.2-3,1.1c-0.1-0.1-0.2-0.1-0.3-0.2c-1.1-0.8-2.2-1.5-3.1-2.5c-0.5-0.5-0.7-1.6-0.5-2.2c0.2-0.5,1.2-0.8,1.9-0.9   c0.6-0.1,1.3,0,2,0c0-0.2,0-0.6-0.1-0.6c-0.6-0.4-1.3-0.8-2-1c-0.9-0.2-2,0-2.7-0.4c-1.1-0.6-1.8-1.7-2.9-2.4   c-0.6-0.4-1.9-0.3-2.2-0.8c-0.8-1.6-1.7-2.9-3.5-3.7c-0.6-0.3-0.6-2-0.8-3.1c0-0.2,0.3-0.6,0.3-0.6c2.6,1.3,4.3-1.5,7-1.5   c4,0.1,8-2.2,11.9-3.7c1.9-0.7,3.6-1.6,5.4-2.5c2.6-1.4,5.1-2.8,7.6-4.3c1-0.6,2.5-1,2.8-1.8c0.6-2.2,2.3-2.5,4-3.1   c0.4-0.1,0.8-0.5,0.9-0.8c0.6-1.6,1.3-2.5,3.4-2.4c1,0,2-1.5,3-2.3c-0.3-0.3-0.6-0.8-0.9-0.8c-0.9,0-1.7,0.2-2.6,0.3   c-0.1,0.1-0.1,0.1-0.2,0.2c-0.4,0.3-0.7,0.8-1.1,1c-0.9,0.4-1.8,0.6-2.6,1c-0.2,0.1-0.4,0.5-0.4,0.7c0.1,0.3,0.4,0.6,0.7,0.9   c-0.7,0-1.3,0-2,0.1c-0.8,0.1-2.2,0.1-2.3,0.4c-0.7,3-3.5,2-5.3,2.8c-0.5,0.2-1.1,0.1-1.6,0.1c0.2-0.4,0.3-1,0.6-1.3   c0.6-0.4,1.3-0.6,1.9-0.7c0.4-0.1,1.2,0.2,1.3,0.1c0.5-0.9,0.8-1.8,1.2-2.7c-0.5,0.2-1,0.4-1.5,0.6c-0.1-0.2-0.1-0.4-0.2-0.6   c0.6,0,1.1,0,1.7,0c1.3-1.7,2.6-4.6,5.2-3.7c0.3,0.1,1.2-0.2,1.2-0.3c0.1-1.8,1.5-2.4,2.7-3.2c0.3-0.2,0.3-0.9,0.4-1.3   c0.2-0.9,0.4-1.9,0.7-2.8c0.1-0.3,0.5-0.4,0.7-0.6c0.2,0.3,0.5,0.5,0.6,0.8c0.2,0.4,0.3,0.8,0.4,1.2c0.5-0.5,1.1-0.9,1.4-1.5   c0.4-0.9,0.2-2.5,0.7-2.8c1.4-0.8,1-1,0.1-1.8c-0.4-0.3-0.4-1.1-0.5-1.7c0.3,0.3,0.6,0.6,1,0.8c0.2,0.1,0.5-0.1,0.7-0.3   c0.5-0.5,0.9-1,1.3-1.6c-0.1,0.7-0.1,1.5-0.2,2.2c-0.1,0.5-0.4,1-0.5,1.5c-0.1,0.4,0,0.8,0,1.2c0.3-0.2,0.5-0.5,0.8-0.8   c0.3-0.3,0.5-0.7,0.7-1c0.2-0.3,0.7-0.7,0.7-0.7c2.2,2,2.2-0.2,2.5-1.4c0.2-0.7,0-1.5,0-2.3c-0.5,0.5-0.9,1-1.4,1.5   c-0.4,0.3-0.8,0.6-1.2,0.9c0,0-0.3-0.3-0.3-0.3c0.9-1.2,1.8-2.4,2.9-3.5c0.1-0.1,1,0.8,1.6,1c0.5,0.2,1.1,0,1.6,0c0,0,0,0,0,0   c0.8-0.7,1.6-1.3,2.4-2c0.4-0.3,0.7-0.7,1.1-1.1c-0.6-0.3-1.1-0.6-1.7-0.9c-0.2-0.1-0.6-0.5-0.6-0.6c0.2-0.4,0.4-0.9,0.7-0.9   c0.9-0.2,1.9-0.3,2.8-0.4c0.1,0.3,0.2,0.9,0.4,1.4c0.2-0.1,0.4-0.1,0.5-0.2c1.9-2.2,3.8-4.3,6.1-6.3c2.6-2.1,4-5.8,5.7-8.9   c-0.2-2.3,0.5-4.2,2.1-5.7c0.4-0.4,1.2-0.3,1.7-0.6c0.2-0.1,0.2-0.7,0.2-1.1c-0.6,0.1-1.3,0.1-1.9,0.2c-0.1-0.2-0.2-0.4-0.3-0.6   c1.1-0.4,2.2-0.7,3.4-1.1c0.2-0.1,0.5-0.3,0.5-0.3c-0.1-0.3-0.3-0.6-0.4-0.9c-0.8-2.6,1.9-3.3,0.9-5.8c-0.7-1.7-0.1-3.8-0.1-5.7   c0-0.2,0.2-0.5,0.3-0.5c1.2-0.1,2.4-0.2,3.6-0.2c-0.2-0.3-0.3-0.8-0.5-0.9c-3.1-0.6-1.9-2.6-1.8-4.5c0.1-1-0.6-2.1-1.1-3.1   c-0.9-2.1-2.8-2.7-4.7-3.5c-0.2-0.1-0.2-0.6-0.2-0.8c-0.1-1,0.1-2.2-0.4-2.8c-0.4-0.5-1.7-0.4-2.6-0.6c0,0.3,0,0.5,0,0.8   c-0.3-0.9-0.5-1.9-0.9-2.8c-0.4-0.9-2.1-2.2,0.7-1.5c0.1,0,0.3-0.1,0.4-0.2c-0.3-0.3-0.5-0.6-0.8-0.8c-0.4-0.3-0.9-0.5-1.3-0.8   c0.2-0.2,0.4-0.6,0.5-0.6c0.5,0.2,1.1,0.4,1.5,0.7c1.9,1.6,4.1,2.9,5.5,4.9c1.3,1.7,1.8,4.1,2.7,6.2c0.3,0.7,0.7,1.4,1.1,2.1   c0.4,0.8,1.1,1.4,1.4,2.2c0.5,1.7-1.5,3.9,1.2,5.1c-0.2,0.4,0.2,0.6-0.1,1c0.2,0.1-0.2,0.4,0.1,0.5c-0.1,0-0.1,0,0,0c0,0,0,0,0,0   c0.2,2.6-0.4,5.8-0.4,8.6c-0.2,0-0.4-0.1-0.6-0.1c-0.1,0-0.4,0.4-0.4,0.4c1.9,1.9-0.6,2.7-1.2,3c-1.9,0.8-1.1,1.4-0.3,2.3   c-0.7,0.8-1.5,1.5-2,2.4c-0.9,1.7-1.7,3.4-2.2,5.2c-1,3-4.7,4.4-4.6,8c0,0.1-0.1,0.3-0.1,0.3c-3.1-0.3-0.2,1.3-0.5,1.9   c-0.1,0-0.1,0.1-0.1,0.1c0,0,0,0,0,0c0,0,0,0,0,0l0,0c0,0,0,0,0,0l0,0c0,0,0,0,0,0c-1.3,0.6-2.5,1.2-3.7,1.9c-0.2,0.1-1,2.3-1,2.8   c-0.2,0-0.4-0.1-0.5-0.2c-0.4,1-0.9,2-1.2,2.9c0,0.1,0.1,0.2,0.2,0.3c0,0,0,0,0,0c-0.4-0.1-4.7,3.7-5.2,4c0.2,0.1,0.4,0.3,0.6,0.4   c-0.2,0-0.3,0.1-0.5,0.2c-0.7,0.3-1.8,1.2-2.1,1c-2.2-1.7-0.8,1.5-1.9,1.3c0.2,0.5,0.5,0.9,0.7,1.4c0.1-0.1,0.2-0.1,0.3-0.1   c1.5-1,2.9-2,4.4-3c0-0.1,0-0.1,0-0.2c0,0,0,0,0.1,0c0.2,0.1,3.9-4.2,4.4-4.5c0.4-0.4,1.6-2.1,2.8-3.7c1.6,0.4,2.3-1.7,2.6-3.3   c1-0.9,2.3-2.4,2.9-3c0.9-0.9,1.1-2.4,2.1-3.1c2.3-1.5,3.3-3.4,3.6-6c0.1-0.7,0.7-1.6,1.3-2.1c1.3-1.1,1.8-2.1,0.3-3.4   c0-0.4-0.1-0.8-0.1-1.1v0c0.1-0.1,0.3-0.3,0.4-0.4c0.3-0.5,0.4-1.2,0.8-1.6c0.5-0.5,1.6-0.6,1.7-1.1c0.1-0.3,0.1-0.6,0-1   c0,0,0,0,0,0c0.4-2.2,2-6.2,2-8.4c0.1-2.1-0.4-4.3-0.7-6.5c0,0,0,0,0,0c0.2-0.3,0.6-0.6,0.5-0.8c-0.5-2.1-0.7-4.4-1.6-6.3   c-1.3-2.9-2.8-5.8-4.8-8.3c-2.1-2.7-4.3-5.4-8-6c0,0,0,0,0,0c-2.1-0.6-4.3-1.2-6.4-1.8c0.4,0.7,0.8,1.4,1.3,2.2   c-0.6-0.2-1.1-0.3-1.4-0.6c-0.7-0.6-1.4-1.3-2.1-1.9c0.7,0.1,1.5,0.2,2.2,0.3c-0.1-0.3-0.3-0.9-0.4-0.9c-1.7,0-3.4,0.1-5.1,0.2   c0.4-0.5-0.3-0.8-1.1-0.7c-6.5,0.5-12.9,1-19.4,1.6c-0.2,0-0.5,0.5-0.6,0.8c0,0.7,0,1.4,0.1,2c0.1,0.3,0.3,0.8,0.6,0.9   c0.8,0.2,1.7,0.3,2.5,0.4c-0.1-0.4-0.1-0.9-0.2-1.3c-0.5-0.2-1-0.4-1.5-0.7c0.3,0,0.7-0.1,1,0c0.2,0.1,0.4,0.4,0.5,0.7   c1,0.1,2.1,0.3,3.1,0.2c2.6-0.4,5.1-2.3,8-0.9c0.3,0.1,0.8-0.2,1.2-0.2c2.4-0.2,4.7-0.6,7-0.4c2.1,0.2,4,1.2,6.3,1.9   c-0.7,0.1-1.4,0.3-2.1,0.3c-1.1,0-2.2-0.1-3.2,0c-0.1,0-0.3,0.6-0.2,0.7c0.4,0.5,0.9,1,1.3,1.5c-1.3-0.2-2.1-0.8-3-1.5   c-0.3-0.2-0.7-0.2-1.1-0.3c0.1,0.3,0.2,0.6,0.2,0.8c0,0.3,0.1,0.7-0.1,0.8c-0.3,0.3-0.7,0.6-1.1,0.6c-1.2,0.2-2.5,0.2-3.8,0.3   c0.2-0.3,0.6-0.6,0.7-1c0.3-0.6,0.9-1.5,0.7-1.9C241,35,240,34.3,240,36c-0.3-0.2-0.7-0.3-1-0.5c-0.8-0.4-1.7-1.2-2.5-1.1   c-1,0.1-2,0.8-3,1.3c0,0,0,0,0,0c-0.2-0.1-0.6-0.3-0.6-0.2c-1.2,1.4-2.7,1.1-4.3,1.1c-1,0-2.3,0.8-3.1,0.5   c-1.1-0.5-1.8-1.7-2.6-2.6c-0.5-0.5-1.1-1.4-1.5-1.3c-5.9,1.4-11.8,2.8-17.7,4.5c-2.9,0.9-5.7,2.3-8.6,3.4   c-2.9,1.1-5.9,1.9-8.7,3.2c-4.6,2.2-9,4.7-13.4,7.3c-3.3,2-6.9,3.8-9.4,6.5c-5.3,5.7-10.9,11.3-13.9,18.7c-1.3,3.1-2.5,6.2-3.7,9.3   c0.3,0.1,0.5,0.2,0.8,0.3c0.5-1,0.8-2.2,1.5-2.9c2.5-2.3,5-4.6,7.7-6.7c5.8-4.6,13-6.4,19.9-8.6c1.7-0.5,3.5-0.8,5.2-1.3   c1.1-0.3,2.1-0.9,3.2-1.2c0.6-0.2,1.3,0,1.9-0.2c1.8-0.6,3.7-1.4,5.5-2.1c0.6-0.2,1.5-0.4,1.7-0.8c0.8-2,2.7-1.2,4.1-1.7   c1.9-0.8,5.1,0.1,6.1-1.1c1.3-1.7,2.6-0.9,3.8-1.4c-0.3,0.5-0.5,0.9-0.7,1.2c0.7,0,1.4,0.1,2.1-0.1c0.2-0.1,0.2-0.9,0.3-1.9   c1.5,0,3.8,0.7,5.2-0.2c2.1-1.3,3.9-0.3,5.9-0.4c1.6-0.1,3.2-1.4,4.9-1.5c1.7-0.1,3.5,0.7,5.3,0.9c0.8,0.1,1.6-0.4,2.4-0.4   c2-0.1,4,0,6-0.3c1.1-0.1,2-0.8,3.1-1.2c0.2-0.1,0.5,0.1,0.8,0.1c-0.2,0.3-0.3,0.6-0.5,0.9c-0.3,0.4-0.6,0.9-0.9,1.3   c-0.2,0.3-0.5,0.6-0.8,0.7c-0.5,0.2-1.1,0.3-1.6,0.4c0.6,0.3,1.1,0.6,1.7,0.8c1,0.3,2.1,0.6,2.5,0.6c-0.5,0.8-0.8,1.2-1,1.6   c-0.5,0.6-1,1.2-1.5,1.8c-0.8,0.9-1.6,1.8-2.4,2.7c0.3,0.2,0.7,0.4,1,0.5c-0.2,0.1-0.4,0.2-0.4,0.2c-0.2-0.2-0.4-0.5-0.6-0.7   c-0.7,0.1-1.4,0.2-2.1,0.3c0,0,0,0,0,0c0,0,0,0,0,0c0,0,0,0,0,0c0,0,0,0,0,0c-0.1,1-0.2,2-0.3,3c-0.1,0.6-0.3,1.1-0.5,1.7   c-0.4-0.4-0.8-0.8-1.3-1.2c-0.3-0.2-0.7-0.7-0.8-0.6c-0.4,0.2-0.8,0.5-1,0.9c-0.1,0.2,0.3,0.7,0.6,1c0.4,0.4,1,0.7,1.2,0.9   c-1,0.4-1.9,0.8-2.7,1.2c-0.2,0.1-0.5,0.9-0.4,1c1.4,1.3-0.1,1.8-0.7,2.4c-2.2,2.1-5.1,3.4-6.5,6.3c-0.1,0.2-0.4,0.3-0.5,0.5   c-1,1.2-1.9,2.5-2.9,3.7c-1,1.1-2.3,2.1-3.4,3.2l0,0c-0.3,0.3-0.6,0.9-1,1c-0.9,0.1-1.8,0-2.8,0c-0.1,0.1-0.2,0.2-0.2,0.2   c-1.4-0.1-1.7,1.3-2.6,2c-3.8,3.1-7.8,5.8-11.8,8.7c-0.7-0.3-1.3-0.2-1.9,0.2c-0.2,0.2-0.2,0.7-0.1,1.1c0.1,0.4,0.2,0.9,0.4,1.3   c-0.4-0.1-0.8-0.3-1.2-0.4c-0.2-0.1-0.5-0.2-0.7-0.3c0,0.3-0.1,0.7,0,1c0.1,0.3,0.3,0.5,0.5,0.8c-0.5,0-0.9,0-1.4,0   c-0.5,0-0.9,0-1.4,0c1.2,1.7-0.7,0.5-0.9,1c-0.3,0.6-0.8,1-1.2,1.6c-0.2,0.3-0.2,0.8-0.3,1.1c-0.3-0.2-0.7-0.4-1-0.6   c-0.2,0.2-0.4,0.4-0.5,0.6c-1.2,0.7-2.5,1.4-4,2.2c0.4-1.2,0.7-1.9,0.9-2.5c-0.2-0.1-0.5-0.2-0.6-0.1c-0.7,0.4-2,0.8-2,1.2   c-0.3,3.2-2.7-0.3-3.4,1.1c-0.4-0.3-1-0.5-1.1-0.9c-1.2-4.6-2.6-9.1-3.2-13.7c-0.5-3.6-0.1-7.4-0.1-11.8c-1.9,3.8-3.3,7-5,10   c-2.6,4.6-6.2,8.3-10.6,11.2c-0.5,0.4-0.8,1.2-1.1,1.8c-0.2,0.4-0.2,0.9-0.5,1.2c-0.2,0.2-4.1,8.1-3.8,8.1c-3.5,1-6.9,1.9-10.4,2.8   c-0.9,0.2-1.8,0.3-2.7,0.4c-2.7,0.5-5.4,1.1-8.2,1.5c-1.6,0.2-4.2,0.9-4.7,0.1c-1.3-2-2.7-0.3-3.9-0.6c-0.8-0.2-1.8,0.7-2.7,0.6   c-4.7-0.4-9.5-0.4-12.6-4.9c2.4,6.6,7.2,11.1,13.2,14c7.2,3.5,14.7,6.3,22,9.5c0.7,0.3,1.3,1.6,1.2,2.3c-0.1,1-1.1,1.8-1.5,2.7   c-0.1,0.3-0.8,2.4,1.1,1c0.2-0.1,0.7,0.3,1,0.4c-0.1,0.2-0.2,0.7-0.4,0.7c-2.4,0.1-2.5,0.8-0.6,2.1c-0.7-0.4,1.2,7.6,1.1,7.5   c0.5,0.8,1,1.7,1.5,2.6c-2.6,1.5,0.6,1.3,0.6,2c0.1,0.1,0.1,0.1,0.2,0.2c-0.1,0.9,0.2,2.1-0.3,2.7c-1.6,1.8-0.3,2.1,1,2.7   c0.4,0.2,1,1.2,0.9,1.3c-1.3,1.6,0.1,2.1,1.1,2.5c4.6,2.2,8.6,5.1,11.5,9.4c1.2,1.8,2.7,3.5,4.1,5.3c-0.6-3.4-1.6-6.6-2.5-9.8   c-1.2-4-1.6-7.9-0.3-12c1.4-4.5,2.5-9.1,3.6-13.7c0.1-0.4,1.9-1.8-0.4-2c-0.9-0.1-1.8-0.4-2.7-0.7c2.3-1.2,4.6-2.4,6.9-3.5   c0,0,0.1,0,0.2,0c1.1-0.1,2.1-0.4,3.2-0.3c0.6,0,1.5,0.5,1.6,0.9c0.8,3.8,1.6,7.6,2.1,11.4c0.2,1.2-0.9,2.8-0.5,3.8   c1.2,3.3,2.5,6.7,4.2,9.8c1.7,3.1,3.7,6.1,5.8,9c0.7,1,0,3.9,2.9,2.7c0,0,0.1,0.2,0.2,0.3c0.9,1.1,1,2.9,3.1,3.1   c0.5,0,1,1.2,1.5,1.9c0.5,0.6,0.7,1.5,1.3,1.9c1.4,0.9,2.9,1.5,4.4,2.3c0.2,0.1,0.5,0.3,0.5,0.4c0,3.2,0.1,3,3,3.8   c1.4,0.4,2.7,1.4,3.7,2.5c0.3,0.3-0.6,1.8-0.9,2.7c0.2,0.2,0.4,0.3,0.5,0.5c1,0.5,1.9,1.1,2.9,1.5c0.4,0.2,0.9,0.2,2.1,0.5   c0,0.1,0,0.5,0,0.9c0.1,0.8,0,2,0.5,2.4c3.1,2.2,5.7,5.2,9.7,6c1.5,0.3,2.7,1.9,4.2,2.3c4,1.2,8.1,2.1,12.2,3.2   c2.1,0.6,4.2,1.5,6.4,1.9c1.6,0.3,3.4,0.1,5,0c1.8-0.1,3.7,0,5.5-0.4c2.2-0.4,4.3-1.2,6.4-1.9C263.2,216.7,264,216.4,264.8,216.2z    M263.5,141.2c-0.4,0.2-0.8,0.5-1.2,0.7c0.2-0.4,0.5-0.8,0.7-1.2C263.2,140.9,263.4,141.1,263.5,141.2z M262.5,135.2   c-0.2,0.4-0.4,0.7-0.5,1.1c0-0.4,0-0.8,0-1.1C262.1,135.1,262.3,135.2,262.5,135.2z M260.9,138.1c-0.1,0.3-0.1,0.7-0.2,1   c-0.1,0-0.3-0.1-0.3-0.1C260.6,138.6,260.7,138.3,260.9,138.1c0.1-0.3,0.2-0.6,0.3-0.9c0.1,0.3,0.2,0.6,0.4,0.9   C261.4,138.1,261.1,138.1,260.9,138.1z M261.6,143.2c0.2-0.4,0.5-0.8,0.7-1.2c-0.1,0.4-0.3,0.9-0.4,1.3   C261.8,143.3,261.7,143.2,261.6,143.2z M269.8,147.3c0.2-0.2,0.4-0.4,0.6-0.6c0.1,0.1,0.2,0.2,0.3,0.3   C270.4,147.1,270.1,147.2,269.8,147.3z M265.5,215.7c0,0.1,0.1,0.2,0.1,0.3c-0.3,0.1-0.5,0.1-0.8,0.2   C265.1,216,265.3,215.9,265.5,215.7z M252.4,96C252.3,96,252.3,96,252.4,96C252.3,96,252.3,96,252.4,96z M270.4,53.5   c0.3,0.5,0.5,1,0.8,1.5c-0.4-0.3-0.8-0.7-1.3-1C270.1,53.8,270.3,53.6,270.4,53.5z M257.3,33.5c0.5,0.7,0.9,1.3,1.4,2   c-0.1,0.1-0.2,0.2-0.2,0.3c-1-0.5-1.9-1-2.9-1.6C256.2,34,256.8,33.8,257.3,33.5z M234.4,39.2c-0.5,0-1.1-0.5-1.6-0.8   c0.3-0.1,0.5-0.2,0.8-0.3c0.7-0.2,1.3-0.4,2-0.6c0,0,0,0,0,0c0.2,0.4,0.4,0.7,0.6,1.1C235.6,38.8,234.9,39.2,234.4,39.2z    M238.2,38.5c0-0.2,0.1-0.4,0.1-0.6c0.5,0.2,1,0.4,1.5,0.6C239.3,38.5,238.8,38.5,238.2,38.5z M240.5,99.6c0.2,0.6,0.5,1.1,0.7,1.7   c-0.4-0.5-0.8-0.9-1.1-1.4C240.3,99.8,240.4,99.7,240.5,99.6z M237.2,68.5c-0.2,0.1-0.4,0.2-0.6,0.3c-0.4-0.9-0.7-1.8-1.1-2.8   C236.1,66.8,236.7,67.7,237.2,68.5z M205.1,129.3c1.1-1.2,2.4-2.3,3.6-3.5c0.1,0.2,0.3,0.3,0.3,0.4c-0.7,1.8,0.5,1.2,1.3,1.1   c0.1-0.4,0.2-0.9,0.3-1.3c0.3,0.3,0.6,0.7,0.9,1c-0.4,0.1-0.8,0.2-1.1,0.4c0.8,1.5-0.1,2.8-1.8,3.1c-1,0.2-1.9,1-2.9,1.4   c-0.5,0.2-1.1,0.2-1.6,0.4C204.5,131.4,204.9,130.4,205.1,129.3z M162.8,156.6c-0.1-0.4-0.1-0.8-0.2-1.2c-0.3-1.3-0.6-2.7-0.8-3.4   c0.1-1.3,0.5-2.3,0.2-2.9c-0.8-1.6,0.3-1.2,1-1.1c0,2.4,0.1,4.9,0.1,7.3C163.2,155.8,163,156.2,162.8,156.6z M163.1,148   c-0.1-0.3-0.2-0.6-0.4-0.9c0.4,0.1,0.7,0.1,1.1,0.2C163.6,147.6,163.4,147.8,163.1,148z M200.4,162c0,0,0.1-0.1,0.1-0.1   c0.2,0.1,0.3,0.3,0.5,0.4C200.7,162.2,200.6,162.1,200.4,162z"/>
	<polygon class="st0" points="206,162 206,162 206,162  "/>
	<path class="st0 face-outer" d="M350.7,103.6c3.9-1.9,7.8-3.7,12.5-3.7c6.2-0.1,9.1,1.9,8.4,7.7c2.3-2.6,1.5-7.6-1.7-9.9   c-5.2-3.7-10.9-2.8-16.6-1.6c-0.2,0-0.4,0.3-0.6,0.4c-0.9,0.4-1.8,0.8-2.7,1.2l0,0c-0.9,0.2-1.7,0.6-2.6,0.7c-0.3,0-0.8-0.6-1-0.5   c-7.3,2.2-14.4,4.9-20.8,9.1c-0.3,0.2-1.1-0.3-1.7-0.6c-0.6-0.3-1.2-0.8-1.8-1.2c0.1,0.4,0.3,0.7,0.4,1.1c-0.6,1.1-1.2,2.3-1.9,3.4   c-0.1,0.1-0.5,0.1-0.8,0.1c0-0.3,0-0.6,0-0.8c0-1.4-0.1-2.7-0.2-4.1c0,0,0,0,0,0c0.2-0.5,0.7-1,0.6-1.4c-0.2-1-0.6-1.9-1-2.9   c-2-0.1-1.5-1.1-0.7-2.1c0.2,0.7,0.5,1.4,0.7,2.1c0.2-0.5,0.4-1.4,0.6-1.4c2.4-0.1,0.3-1.1,0.2-1.4c-0.1-0.9-1.5-1.2-0.5-2.7   c0.7-1.1,0.5-2.9,0.5-4.5c0-2.9,0-5.7-0.1-8.6c-0.1-0.2-0.3-0.3-0.4-0.5c0-1.2,0.1-2.5,0-3.7c-0.1-1.2,1.6-2.4,0-3.7   c-0.3-0.2,0-1.2,0-1.9c0.6,0.3,1.2,0.6,1.7,1.1c0.4,0.4,0.6,1,0.8,1.6c0.1,0.1,0.3,0.3,0.4,0.4c0.2-2.3,0.5-4.5,0.6-6.8   c0.3-6.2,0.5-12.3,0.6-18.5c0-0.6-0.6-1.2-0.5-1.7c0.3-1.5,1-3,1.3-4.5c0.5-2.7,0.6-5.5,1.3-8.1c0.3-1.2,1.5-2.7,2.7-3.2   c4.3-1.9,12.4,0.2,15.1,4c1.9,2.6,3.4,5.4,5,8.1c-0.5-4.7-2.8-8.8-5.3-12.8c-4.1-6.5-16.6-9.6-23.4-4.6c-3.4,2.5-4.7,5.7-5.9,9.2   c-1.1,3.3-1.6,6.8-2.4,10.3c-0.4,3.4-1.3,6.6-2.7,9.7c-0.1,0.2-0.2,0.4-0.2,0.6c0,0.7,0.1,1.4,0.2,2.1c0,0.1,0.1,0.1,0.1,0.2   c-0.1,0.7,0,1.7-0.4,2.1c-2,1.8-3.1,5.2-2.3,7.7c0.2,0.6-0.1,1.3-0.1,2c0,0.6-0.1,1.1,0,1.7c0.1,0.4,0.7,0.8,0.6,1.2   c-0.2,1.6-0.5,3.2-0.8,4.7c-0.3,1.6-0.8,3.2-1.1,4.8c-0.1,0.8,2.2,1.9-0.4,2.3c0.1,0.4,0.2,0.8,0.2,1.1c0.3,2,0.6,4.1,0.8,6.1   c0.2,1.5,0.3,2.9,0.4,4.4c0,0.6,0.2,1.2,0.1,1.9c-0.9,6.6-1.1,12.4-1.1,19c0,1.4,0.6,3,0.1,4.1c-1.4,3-3.3,5.8-4.9,8.7   c-1.1,2-2.1,4-3.3,6.3c2-1.5,3.5-2.7,5.1-3.9c0.2-0.1,1.3,0.4,1.2,0.5c-0.3,2.4-0.8,4.9-1.2,7.3c0,0.1-0.2,0.2-0.4,0.2   c-1.6,0-2,0.6-1.9,2.3c0,0.6-0.7,1.2-1.1,1.8l0,0c0,0.4,0,0.7,0,1.1l0,0c0,0.4,0.2,0.9,0,1.3c0,0.2-0.6,0.1-1,0.2   c0.5,0.6,1,1.2,1.5,1.7c0.8,0.7,2.2,1.4,2.3,2.1c0.2,3.3,0.1,6.6-0.1,9.9c-0.1,1.4-0.7,2.8-0.8,4.2c-0.1,1.3,0.4,2.5,0.4,3.8   c0,1.5-0.2,3-0.3,4.5c-0.1,1.5-0.1,3-0.1,4.5c0,0.4-0.4,0.8-0.3,1.2c0.5,3.6,0.9,7.3-1.3,10.9c-0.1-0.9-0.1-1.5-0.2-2   c-0.1-0.2-0.5-0.4-0.8-0.5c-0.1,0.2-0.4,0.5-0.3,0.7c0.3,1,1.2,2.2,0.9,3c-0.5,1.3-0.8,2.4-0.1,3.6c-0.3,0.1-0.7,0.2-0.7,0.4   c-0.1,0.6-0.1,1.8-0.1,1.8c2.9,0.4,2,2.5,2.1,4.2c0.3,4.1-2.6,7.9-1.4,12.1c0,0.1-0.4,0.3-0.5,0.5c-0.2,0.4-0.6,1-0.5,1.1   c2.2,2.2,0.4,3.3-1.2,4.5c0.1,0.1,0.1,0.2,0.2,0.3c0.4,0.4,1.3,1,1.3,1.1c-0.9,1.6-1.9,3.1-2.7,4.7c-0.3,0.6-0.1,1.5-0.2,2.3   c0,0,0.1,0.1,0.1,0.1c0,1.6,0.8,3.4-0.9,4.7c-0.2,0.1-0.1,0.5-0.2,0.8c0.3,0.1,0.6,0.1,1,0.2c0.2,0,0.3,0,0.5,0   c0.3,0.3,0.8,0.5,0.8,0.8c0.1,1.2,0.1,2.4,0.1,3.7c0,0.2-0.2,0.4-0.3,0.5c-2.1,1.9-3.3,7.1-2.4,9.6c0.3,0.7-0.3,1.7-0.5,2.6l0,0   c1.1,2,0,2.4-1.7,2.5c-0.3,0-0.8,0.9-0.9,1.4c0,0.9,0.3,1.9,0.3,2.9c-0.1,1.7-0.4,3.3-0.7,5c-0.1,0.5-0.6,0.9-0.8,1.4   c0.6,0.1,1.1,0.2,1.2,0.2c-0.4,1.9-1.5,4-1.1,5.8c0.2,1,1.1,1.2-0.4,1.7c-0.8,0.3-1.5,0.8-2.7,1.6c1.4,0.2,2,0.2,2.6,0.3   c-0.2,0.3-0.3,0.7-0.6,0.8c-2.5,0.7-1.4,2-0.6,3.2c0.1,0.4,0.3,0.8,0.4,1.2c0.1,0.1,0.1,0.2,0.2,0.3c0,0,0,0.1-0.1,0.1   c-0.7,0.2-1.7,0.2-2.1,0.7c-1.8,2-3.4,4.2-5.1,6.3c-0.8,1-1.7,2-2.6,2.8c-0.7,0.6-1.6,1.4-2.4,1.4c-3.8-0.2-7.8-3.9-8.5-7.7   c-1.8-9.9-0.1-19.2,4.4-28c1.3-2.5,3.1-4.7,4.6-7.1c-0.7,0.4-1.4,0.8-2.1,1.3c-6.4,5.5-12,11.6-13.9,20.2c-0.3,1.3-0.9,2.6-1,3.9   c-0.4,3.2-0.6,6.5-0.8,9.7c0,0.3,0.3,0.7,0.4,1c0.1,0.6,0.1,1.3,0.2,1.9c-0.1,0-0.3,0.1-0.4,0.1c-0.2-0.4-0.4-0.9-0.5-1.3   c-0.1,1.2,0.2,2.5-0.3,3.4c-1.5,2.8,0.8,3.9,2,5.5c0.1-0.6,0.3-1.3,0.3-1.9c-0.1-0.6-0.4-1.2-0.3-1.9c1.3,1.6,2.7,3.3,3.7,4.6   c-0.9,2.1-2,2.6-3.3,1.6c0,0.5-0.3,1.2-0.1,1.5c0.5,0.6,1.3,1.1,2,1.6c0.1-0.2,0.1-0.4,0.2-0.6c0.1-0.2,0.3-0.5,0.3-0.5   c0.4,0.2,1.2,0.5,1.2,0.7c-0.4,2.3,0.6,4,2.4,5.2c1.7,1.1,3.5,1.9,5.3,2.9c0.2-0.8,0.3-1.3,0.4-1.9c-0.4-0.1-0.7-0.2-1.1-0.4   c0.2-0.2,0.5-0.3,0.7-0.5c0.2-0.4,0.3-0.8,0.4-1.2c0,0.7,0,1.4,0,2.1c1.8,1.3,3.2,1,3.6-0.7c-0.1-0.3-0.2-0.6-0.3-0.9   c0.1,0,0.3-0.1,0.3,0c0.1,0.3,0.1,0.7,0.2,1c1,0.5,1.9,1.2,2.9,1.4c1.3,0.3,2.6,0.7,4-0.2c0.7-0.5,2.2,0.2,3.1-0.2   c0.8-0.4,1.4-1.6,1.6-2.5c0.2-0.6-0.4-1.4-0.6-2.1c0.6,0.2,1.3,0.4,2,0.5c0.7,0.2,2.2-0.8,1.7,1.2c0,0.1,0.5,0.4,0.7,0.4   c1.5-0.3,3.5-0.1,4.5-1c3.4-2.9,6.4-6.3,9.6-9.5c0.3-0.3,0.4-0.9,0.6-1.4c-0.3-0.1-0.6-0.1-0.8-0.2c0.3-0.2,0.6-0.5,0.9-0.7   c0.3-0.2,0.6-0.4,0.7-0.7c1.7-3.6,3.4-7.3,5-11c0.3-0.7-0.2-1.6-0.3-2.5c-0.6,0.5-1.1,0.9-1.7,1.4c-0.1,0.3-0.3,0.7-0.4,1   c-0.1-0.1-0.3-0.1-0.4-0.2c0.2-0.3,0.5-0.5,0.7-0.8c-0.9-0.2-1.8-0.5-1.9-0.5c-0.1-1.1-0.2-2-0.2-2.9c0-0.3,0.2-0.6,0.4-0.9   c0.1-0.1,0.4-0.2,0.5-0.1c0.4,0.2,0.9,0.4,1.3,0.6c-0.5-0.9-1-1.8-1.5-2.7c0-0.1,0.4-0.5,0.4-0.5c0.7,0.5,1.5,1,2.1,1.6   c0.2,0.2,0.2,1,0,1.3c-1,1.2-1.3,2.1,0.8,2c0.4,0,1.1-0.3,1.2-0.6c0.5-2.8,0.8-5.7,1.4-8.5c0.6-2.9,1.5-5.7,2.1-8.5   c0.6-2.8,0.9-5.6,1.3-8.5c1.6-12.4,3.3-24.8,4.6-37.3c0.6-6,0.7-12.1,0.9-18.1c0.2-6.8,0.5-13.6,0.6-20.4c0.1-8.7-0.1-17.3-0.1-26   c0-8.9,0.2-17.8,0.4-26.7c0-0.7,0.3-1.8,0.9-2.1c3.5-2.3,7-4.6,10.6-6.6C340.4,109.1,345.5,106.2,350.7,103.6z M318.9,97.7   c-0.1,0.3-0.1,0.5-0.2,0.8c0-0.3-0.1-0.5-0.1-0.8C318.7,97.7,318.8,97.7,318.9,97.7z M270.1,305c0.4,0,0.7,0,1.1,0   c-0.3,0.1-0.7,0.2-1,0.3C270.2,305.2,270.1,305.1,270.1,305z M319.4,103.8c0.1,0.3,0.2,0.7,0.3,1c-0.2-0.3-0.5-0.6-0.7-0.9   C319.2,103.9,319.3,103.9,319.4,103.8z"/>
	<polygon class="st0" points="442.8,165.9 442.8,165.9 442.8,165.9  "/>
	<path class="st0 face-inner" d="M440.7,197.3c0.4-0.4,0.8-0.8,1.2-1.1c0,0,0,0,0,0C441.5,196.5,441.1,196.9,440.7,197.3L440.7,197.3z"/>
	<path class="st0 face-outer" d="M433.9,201.9C433.9,201.9,433.9,201.9,433.9,201.9C433.9,201.9,433.9,201.9,433.9,201.9L433.9,201.9z"/>
	<path class="st0 face-inner" d="M461.4,158.4c-0.2-0.8-0.8-1.6-1.2-2.4c-0.4,0.5-0.7,1-0.9,1.3c-0.5-0.3-1-0.7-1.5-1.1   c-0.2-0.2-0.4-0.6-0.3-0.7c0.7-0.9,1.5-1.7,2.3-2.5c0.1-0.1,0.3,0,0.5,0.1c0.2,0.1,0.4,0.2,0.6,0.3c0.3-1.6,1.2-3.3,0.9-4.7   c-0.6-2.6-1.9-5-2.9-7.5c-2.1-5.4-5.6-9.8-9.8-13.6c-0.5-0.4-1.8,0-2.8,0.1c0.1,0.6,0.2,1.1,0.3,1.7c-0.8-0.2-1.6-0.3-2.4-0.5   c-0.2,0-0.3-0.3-0.5-0.5c0.6-0.3,1.1-0.5,1.7-0.7c0.3-0.1,0.6,0,0.9,0c1-2-0.3-2.9-1.8-3.8c-5.6-3.4-11.2-6.8-16.8-10.3   c-5.8-3.7-11.6-7.4-17.3-11.2c-2-1.4-2.3-5.1-0.6-6.6c3.9-3.5,8.9-4.4,13.7-3.8c5.4,0.7,11,2,14.7,6.8c0.1,0.1,0.4,0.2,1,0.5   c-3.6-5-7.9-8.3-13.4-9.9c-3.7-1.1-7.4-1.9-11.1-2.7c-0.7-0.2-1.5-0.1-2.2,0.2c-1.3,0.4-2.4,1.2-3.7,1.6c-3.6,1.3-7,2.6-8,6.9   c-0.1,0.4-0.3,1-0.6,1.1c-5.7,2.3,1.7,14.5,3.1,17.1c0.7,1.3,1.7,2.4,1.7,4c0,0.3,0.5,0.6,0.8,0.8c0.4,0.2,1.2,0.3,1.2,0.5   c0.1,2.1,1.5,3.1,3,4.1c0.6,0.4,0.9,1.3,1.4,1.8c0.7,0.7,1.5,1.3,2.3,1.9c0.1,0,0.3-0.2,0.5-0.4c-1.1-0.5-1.5-1.2-1.1-1.9   c0.9,0.5,2.1,0.8,2.5,1.5c1.4,2.6,3.2,4.6,6.2,5.3c0.4,0.1,0.6,0.8,0.9,1.2c0.3,0.3,0.5,0.6,0.8,0.8c0.3,0.3,0.6,0.6,0.8,1   c0.4,0.6,0.5,1.6,1,1.9c2.5,1.4,5.1,2.6,7.5,4c1.2,0.7,2.9,4.7,4.3,3.2c0.2,0.8,0.4,2.1,0.7,2.1c3.3,0.2,2.9,3.4,3.6,5.1   c1.3,3.1,1.4,6.8,2.3,10.1c0.4,1.5,1,2.6-1,3.3c0.7,0.2,1.1,0.3,1.5,0.4c-0.5,0.6-1,1.1-1.5,1.7c0,0.4,0,0.9-0.1,1.2   c-0.7,1.6-1.6,3-2.1,4.6c-0.4,1.1,0.2,2.7-0.3,3.6c-2.9,5-6.5,9.4-12,11.9c-1.8,0.8-4,1.1-5.7,2.1c-2.8,1.5-5.8,2-8.9,2.1   c-2.3,0.1-4.5,0.5-6.8,0.7c-2.1,0.2-4.2,0.4-6.3,0.5c-0.2,0-0.3-0.5-0.5-0.8c-0.1-0.3-0.2-0.8-0.4-0.9c-2.4-0.7-5-1.2-7.3-2.1   c-0.9-0.4-1.5-1.8-2.1-2.8c-0.2-0.4,0-1.3-0.2-1.5c-3-1.4-1.8-4.3-1.7-6.3c0.2-3,1.4-5.9,2.2-8.9c0.1-0.3,0.4-0.4,0.6-0.7   c0.5-0.6,1-1.4,1.6-1.9c1.7-1.4,3.4-2.9,5.3-3.9c2.1-1.1,4.5-1.5,6.6-2.6c1.8-0.9,4.8-0.8,5.8,1c2.1,4,4.3,7.9,3.1,12.9   c-1,4.1-3.3,6.9-7.5,7.3c-2.9,0.3-5.7,0-8,0c4.8,3.6,14.2,3,19.2-1.5c4.8-4.5,5.5-10.1,5.5-16.3c0.1-11-8.1-20.2-20-19.1   c-4.9,0.5-9.9,1.3-14.7,2.6c-2.9,0.8-5.4,3-8,4.6c-1,0.6-1.8,1.4-2.6,2.2c-0.3,0.2-0.3,0.7-0.4,1.1c-0.4-0.3-0.9-0.5-1.1-0.8   c-0.3-0.7-0.6-1.5-0.4-2.1c0.4-2.3,1.2-4.4,1.6-6.7c0.7-4.1,1.1-8.2,1.7-12.3c0.2-1.5,0.9-3,1-4.4c0.2-3.1,0.1-6.2,0.1-9.3   c0-5.2,0-10.4,0-15.6c-3.6,7-6.5,14.2-9.6,21.2c-4.5,10.3-8.4,21-16.9,29c-1.3,1.2-2.9,3.1-4.1,2.9c-1.9-0.3-2.1,0.8-2.8,1.7   c-0.2,0.3-0.2,0.8-0.4,1.2c-0.1,0.2-0.4,0.3-0.6,0.4c-0.1-0.2-0.2-0.4-0.2-0.7c-0.3-1.8-0.7-3.5-0.8-5.3c-0.1-0.6,0.4-1.3,0.6-1.9   c0.1-0.2,0.4-0.5,0.4-0.7c-0.1-2.7-0.2-5.4-0.3-8.1c0-1.4,0.1-2.8,0.2-4.2c0.4,1,0.4,2,0.6,3c0.1,0.4,0.5,0.8,0.7,1.2   c0.2-0.4,0.6-0.8,0.6-1.2c-0.1-2.5-0.4-4.9-0.6-7.4c0-0.2-0.5-0.4-0.7-0.6c-0.3-0.2-0.7-0.4-0.9-0.7c-0.2-0.2-0.1-0.7-0.1-1   c0.6-0.1,1.2,0.1,1.8,0.5c0.1-0.5,0.2-0.9,0.2-1.4c0-4.9-0.1-9.8-0.1-14.8c0-1.3,0-2.7,0-4.4c-2,3.2-3.8,6-5.4,8.9   c-1.7,2.9-3.4,5.9-4.9,8.9c-0.4,0.8-0.3,2-0.4,2.9l0,0c-0.1,0.5-0.1,1.1-0.4,1.5c-1.5,2.7-1.8,5.5-1.7,8.7c0.1,2.7-0.9,5.6-1.7,8.3   c-0.4,1.4-1.9,2.6-1.9,3.8c0.5,6.7,0.6,13.8,6.4,18.7c1.7,1.4,4.1,1.9,6.2,2.8c0.1,0,0.2-0.1,0.3-0.1c0.7,0,1.4,0.2,2.1,0   c2.2-0.3,4.4-0.8,6.5-1.2c0.4-0.1,0.7-0.2,1-0.3c0.8-0.2,2.4,1.2,2-1.1c0.5-0.1,1.1-0.2,1.6-0.2c0.3,0,0.7,0.5,0.8,0.4   c1.6-1.2,3.2-2.5,4.8-3.8c1.2-1.5,2.6-2.7,4.4-3.6c1-0.9,1.7-2.1,2.7-3.3c0.5,3.2-3.2,5.5-1,8.8c0.5,0.8-1,2.8-1.5,4.3   c-0.2,0.4-0.3,0.9-0.3,1.3c0.2,2.5,0.4,5,0.7,7.5c0,0.3,1.1,0.4,1.2,0.8c0.3,0.9,0.5,1.9,0.3,2.7c-0.7,3.8,2.4,6.3,3.4,9.5l0,0   c1.1-1,2.1-0.3,2.5,1.7l0.1,0.1c0.6,0.3,1.3,0.5,1.9,0.8c-0.2,0.1-0.4,0.3-0.6,0.4c0.2,0.4,0.3,0.9,0.6,1.1   c0.9,0.6,0.9,0.6,0.6,1.6c0,0.1,0.1,0.4,0.2,0.5c2.3,1.3,4.5,2.6,6.8,3.7c0.5,0.3,5.7,3.2,6.3,1c0.2-0.6,1.3-0.9,1.9-1.3   c0.3-0.2,0.5-0.3,0.8-0.5c0,0.3-0.1,0.5-0.1,0.8c0.5,0,1,0,1.5,0c0.6,0.1,1.2,0.2,1.7,0.3c-0.1,0.1-0.1,0.3-0.2,0.3   c-0.5,0.1-1.1,0.2-1.6,0.3c-0.2,0-0.4,0-0.7,0c0.1,0.3,0.1,0.7,0.2,0.7c0.7,0.2,1.3,0.4,2,0.5c1,0.1,2,0.1,3,0.1   c0.4,0,0.7,0.2,1,0.2c-0.2-0.5-0.4-1-0.8-1.4c-0.3-0.3-0.8-0.4-1.2-0.6c1.1-0.3,2-0.1,2.9,0c0.3,0,0.6-0.2,0.8-0.3   c-0.2-0.2-0.4-0.5-0.7-0.6c-0.7-0.2-1.5-0.2-2.8-0.4c2.2-0.6,3.9-1.1,5.5-1.5c0.1,0,0.4,0.4,0.4,0.6c-0.2,0.9,0.4,1.5,1.4,1.2   c0.3-0.1,0.8-0.4,0.9-0.4c2.1,2.9,4.4-1,6.8,0.1c0.5,0.2,2.3-0.9,3.7-0.2l0.1-0.1c0.4-0.3,0.9-0.8,1.2-0.7c0.3,0.1,0.6,0.7,0.9,1.1   l0,0c0.8-0.7,1.8-1.3,2.2-2.2c0.7-1.7,2.6-2.8,4.6-2.1c-0.5,0.4-0.9,0.7-1.3,1.1c0.9,0.1,1.8,0.2,2.7,0.3c0.3,0.2,0.6,0.3,0.9,0.5   c0.9-1.1,1.5-2.4,2.6-3.2c0.9-0.6,2.2-0.6,3.3-0.8c-0.3-0.4-0.6-0.8-1-1.3c3.3,0.9,2.6-1.4,2.8-3c0.3,0.3,0.9,0.6,0.8,0.8   c-0.4,2.1,0.8,1.2,1.7,1c0.4-0.7,0.8-1.3,1.2-2c0.1-0.1,0.2-0.1,0.3-0.2c0.6-0.5,1.2-1,1.8-1.4c0.1,0.1,0.2,0.3,0.3,0.4   c0.3-0.2,0.5-0.5,0.8-0.7c-0.4-0.2-0.8-0.4-1.2-0.7c0.6-1.1,1.2-2.1,1.5-2.8c0.9-0.4,1.7-0.8,2.5-1.2c-0.4,0.4-0.7,0.9-1.1,1.3   c0.4,0.2,0.9,0.4,1.3,0.6c-0.2,0.1-0.4,0.2-0.6,0.3c-0.3,0.5-0.7,1-1,1.5c1,0.5,1.9,0.9,2.9,1.4c-0.2-1.3,0.3-1.6,1.6-1.5   c0.5,0.1,1.6-0.4,1.6-0.7c0.1-1.4,0.4-1.8,1.7-1.8c0.2,0,0.6-0.2,0.6-0.4c0-0.2-0.2-0.6-0.4-0.7c-2.3-0.9-0.3-1,0.2-1.6   c0.4-0.6,0.4-1.5,0.5-2.3c-0.4,0-0.8-0.1-1.2-0.1c0,0.3,0,0.6,0,0.8c-0.8,0.9-1.6,1.9-2.4,2.7c-0.3,0.3-0.9,0.4-1.3,0.5   c0.1-0.3,0.3-0.6,0.4-0.9c0,0,0.1,0.1,0.1,0.1c1.2-0.6,1.5-1.6,1-2.9c-0.6-1.7-0.4-3.1,1.7-3.5c0.4-0.1,0.7-0.5,1.1-0.8   c0.2-0.6,0.4-1.2,0.6-1.7c0.1,0.1,0.2,0.1,0.4,0.2c-0.3,0.5-0.6,1-1,1.6c0.4,0.5,0.8,0.9,1.5,1.7c0.2-0.1,0.9-0.4,1.7-0.7   c-0.2,1.4-0.5,2.8-0.7,4.2c0.9-0.8,1.1-1.7,1.3-2.6c0.1-0.3,0.3-0.5,0.4-0.8c0.4-1.3,0.7-2.6,1-3.8c-0.3,0.1-0.6,0.2-0.9,0.3   c-0.6,0.1-1.2,0.2-1.8,0.1c-0.2,0-0.4-0.6-0.3-0.9c0.2-0.4,0.5-1.1,0.9-1.1c2.9-0.7,5.4-2.9,5.5-5.8c0.1-0.9,1.6-3-1.1-3.1   c-0.7-0.2-1.3-0.4-2-0.6c0.3-0.2,0.6-0.3,0.9-0.5c0.3-0.1,0.7-0.3,1-0.4c0,0.1,0.1,0.3,0.1,0.4c-0.4,0-0.7,0-1.1,0.1   c0.4,0.4,0.7,0.7,1.1,1.1c1.4-1.5,1.1-3.5-0.7-3.9c0.3-1,0.4-2.6,1-3c1.8-0.9,1.4-1.9,1.1-3.4C460.9,159.7,461.6,159,461.4,158.4z    M425.8,204c0.2-0.1,0.4-0.2,0.6-0.3c0,0.1,0,0.1,0.1,0.2C426.2,203.9,426,204,425.8,204z M435.7,197.6c-0.2-0.2-0.4-0.4-0.6-0.6   c0.3,0,0.7-0.1,1-0.1C435.9,197.1,435.8,197.4,435.7,197.6z M440.1,195c0.4-0.1,0.8-0.2,1.2-0.2c-0.4,0.2-0.8,0.5-1.2,0.7   C440.1,195.3,440.1,195,440.1,195z M446.4,189.8c0.1-0.2,0.2-0.5,0.3-0.7c0.2-0.3,0.3-0.7,0.5-1c0.1,0.2,0.2,0.5,0.2,0.7   c0.1,0.2,0.1,0.3,0.2,0.5C447.2,189.4,446.8,189.6,446.4,189.8z M455.9,183.6c-0.2,0.2-0.4,0.3-0.6,0.5c0.1-0.2,0.3-0.5,0.4-0.7   C455.8,183.4,455.9,183.5,455.9,183.6z M457.5,167c0-0.2,0-0.3,0-0.5c0.5,0,0.9,0.1,1.4,0.1C458.4,166.7,458,166.8,457.5,167z"/>
	<path class="st0 face-outer" d="M410.9,224.9c-0.5,0.4-1,0.8-1.3,1.3c-0.3,0.5-0.4,1.2-0.4,1.9c-0.2,9.8-0.4,19.7-0.6,29.5c0,1,0,2-0.1,3   c0,0.1-1,0.4-1.1,0.2c-0.9-1.4-1.8-2.9-2.6-4.4c-0.7-1.4-0.8-3.1-1.7-4.3c-3.7-4.5-4.9-9.8-5.7-15.4c-0.4-2.7-1.3-5.4-2.1-8   c-0.2-0.7-1-1.2-1.5-1.7c-0.2,0.7-0.6,1.5-0.7,2.2c-0.1,1.7,0.1,3.4,0.1,5.2c0,4.8-0.2,9.7,0,14.5c0.1,3.9,0.6,7.9,0.8,11.8   c0.2,3.1,0.1,6.2,0.4,9.2c0,0.5,0.9,1,1.4,1.5c0.4-0.5,1.1-1,1.1-1.5c0.2-2.5,0.3-5.1,0.3-7.6c-0.1-5-0.4-9.9-0.6-15.6   c1.8,3.7,3.3,7.1,4.9,10.4c1.9,3.9,3.9,7.8,5.6,11.8c0.7,1.6,1.7,2.5,3.2,1.8c0.7-0.3,1.2-1.7,1.3-2.6c0.3-11,0.5-22.1,0.7-33.1   c0.1-2.8,0.2-5.7,0.1-8.5C412.2,225.9,411.4,225.4,410.9,224.9z"/>
	<path class="st0 face-inner" d="M432.1,228.2c0-2.8-1.3-5-3.4-6.5c-1.2-0.8-3.7-1.5-4.5-0.8c-2.6,1.9-5.3,4-5.4,7.9   c-0.1,5.7-0.5,11.4-0.7,17.1c-0.2,0-0.5,0.1-0.7,0.1c0.9,6.1,1.6,12.3,2.7,18.4c0.4,2,1.4,4.1,2.7,5.7c2.3,2.8,5.7,2.5,7.5-0.7   c1-1.7,1.9-3.8,1.9-5.8C432.3,251.8,432.1,240,432.1,228.2z M429.4,263.5c0,1.2-0.6,2.7-1.5,4.4c-0.4,0.7-1,1.2-1.5,1.2   c-0.5,0-1-0.3-1.4-0.9c-1-1.2-1.8-2.8-2-4.3c-0.8-4.3-1.4-8.8-2-13.1c-0.1-0.8-0.2-1.5-0.3-2.3l0.2,0l0.1-2.4   c0.1-1.7,0.2-3.4,0.2-5.1c0.2-3.9,0.4-8,0.5-12c0.1-2.3,1.5-3.7,3.8-5.4c0.5,0.1,1.3,0.3,1.7,0.6c1.5,1,2.2,2.3,2.2,4.1   c0,4.5,0,9.1,0,13.6C429.4,248.9,429.4,256.3,429.4,263.5z"/>
	<path class="st0 face-outer" d="M343.2,236.4c0-0.7-0.8-1.3-1.2-2c-0.6,0.5-1.6,1-1.9,1.7c-1.3,3.6-2.5,7.2-3.7,10.8c-0.1,0.4-0.5,0.8-0.7,1.2   c-0.3-0.4-0.6-0.7-0.8-1.1c-1.4-3.5-2.6-7.1-4-10.6c-0.2-0.6-1.2-0.9-1.8-1.4c-0.4,0.7-1,1.3-1,2c0,4.7,0.1,9.4,0.2,14.1   c0.1,5.9,0.2,11.7,0.4,17.6c0,1.2-0.1,2.9,1.8,2.4c0.7-0.2,1.3-1.8,1.3-2.8c0.1-7.4,0.1-14.8,0.1-22.2c0.3,1.4,0.9,2.9,1.7,4.2   c0.4,0.7,1.4,1.4,2.1,1.3c0.8-0.1,1.8-0.8,2.3-1.5c0.9-1.4,1.6-3,2.4-4.5c0.2,0,0.3,0.1,0.5,0.1c-0.2,1.1-0.5,2.1-0.4,3.2   c0.1,7.2,0.3,14.5,0.5,21.7c0,0.4,0.4,1.2,0.7,1.2c0.5,0,1.3-0.2,1.5-0.6c0.4-0.6,0.5-1.5,0.5-2.2c0-3.8,0-7.6-0.1-11.4   C343.4,250.5,343.4,243.4,343.2,236.4z"/>
	<path class="st0 face-inner" d="M386.3,252.4c-0.6-3.9-1.8-7.8-2.8-11.7c-0.9-3.6-1.7-7.3-2.7-10.9c-0.2-0.7-1.1-1.1-1.6-1.7   c-0.3,0.7-0.9,1.3-1,2c-0.8,5.9-1.5,11.7-2.3,17.6c-0.9,6.9-1.9,13.9-2.9,21.4c0.1,0.4,0.5,1.2,0.8,1.9c0.6-0.8,1.2-1.5,1.8-2.3   c0.1-0.1,0.1-0.2,0.1-0.3c0.6-4,1.4-8,1.8-12c0.2-2.2,1.6-2.2,3.1-2.1c1.5,0.1,3.1,0.1,3.3,2.3c0.4,4.6,0.9,9.2,1.6,13.8   c0.1,0.6,0.9,1,1.4,1.5c0.4-0.6,1.3-1.3,1.2-1.9C387.6,264.2,387.1,258.3,386.3,252.4z M381.2,251.6l-0.3,0c-0.4,0-0.7-0.1-1.1-0.1   c-0.6,0-1.1,0.1-1.5,0.2c0.2-1.2,0.3-2.3,0.5-3.5c0.3-2.2,0.6-4.3,0.8-6.5c0.1-1.2,0.3-2.3,0.5-3.5c0.1,0.3,0.8,3.2,0.8,3.2   c0.3,1.2,0.6,2.4,0.9,3.5c0.6,2.4,1.3,4.8,1.7,7.1C382.5,251.7,381.6,251.6,381.2,251.6z"/>
	<path class="st0 face-outer" d="M361.8,270.1c-0.6,0-1.6-0.8-1.7-1.4c-0.7-6.1-1-12.6-1.5-18.7c-0.3-4.4-0.5-8.7-0.8-13.1c0-0.5-0.6-1-0.9-1.5   c-0.3,0.4-0.8,0.8-0.8,1.2c-0.2,4.3-0.6,8.6-0.5,12.9c0.1,5.2,0.8,10.4,1,15.7c0.3,7.1-1.2,7.5,7.5,7.4c1.4,0,2.9,0.2,4.3-0.1   c0.6-0.1,1.1-1,1.6-1.6c-0.6-0.2-1.1-0.7-1.7-0.7C366.2,270,364,270.2,361.8,270.1z"/>
	<path class="st0 face-inner" d="M349.5,235.9c-0.1-0.6-0.8-1.2-1.2-1.8c-0.3,0.7-0.8,1.4-0.7,2.1c0.2,5.3,0.6,10.6,0.6,15.9   c0.1,5.7-0.2,11.3-0.3,17c0,0.7,0.8,1.4,1.2,2.1c0.5-0.6,1.4-1.1,1.5-1.7c0.1-8.7,0.1-17.4,0.1-26   C350.3,240.9,350,238.4,349.5,235.9z"/>
	<path class="st0 face-outer" d="M446.9,195.9C446.9,195.9,446.9,195.9,446.9,195.9C446.9,195.9,446.9,195.9,446.9,195.9L446.9,195.9z"/>
</g>
</svg>
